# xmcd
#
# Track frame offsets: 
#        183
#        14390
#        28258
#        45085
#        59773
#        72145
#        86473
#        100298
#        116113
#        129385
#        142233
#        153515
#        172395
#        183988
#        196938
#        215198
#
# Disc length: 3063 seconds
#
# Revision: 2
# Processed by: cddbd v1.5.2PL0 Copyright (c) Steve Scherf et al.
# Submitted via: ExactAudioCopy v1.1
#
DISCID=f10bf510
DTITLE=Quiet Elegance - You Got My Mind Messed Up
DYEAR=1990
DGENRE=R&B
TTITLE0=After You
TTITLE1=Mama Said
TTITLE2=Do You Love Me
TTITLE3=Something You Got (Sho' Nuff Makes Me Hot)
TTITLE4=I'm Afraid Of Losing You
TTITLE5=You Brought The Sun Back Into My Life
TTITLE6=I Need Love
TTITLE7=Tired Of Being Alone
TTITLE8=Will You Be My Man (In The Morning)
TTITLE9=You Got My Mind Messed Up
TTITLE10=Your Love Is Strange
TTITLE11=Roots Of Love
TTITLE12=Love Will Make You Feel Better
TTITLE13=Have You Been Making Out OK
TTITLE14=Set The Record Straight
TTITLE15=How's Your Love Life, Baby
EXTD=
EXTT0=
EXTT1=
EXTT2=
EXTT3=
EXTT4=
EXTT5=
EXTT6=
EXTT7=
EXTT8=
EXTT9=
EXTT10=
EXTT11=
EXTT12=
EXTT13=
EXTT14=
EXTT15=
PLAYORDER=
